<?xml version="1.0" encoding="utf-8"?>
<!-- Generator: Adobe Illustrator 16.0.0, SVG Export Plug-In . SVG Version: 6.00 Build 0)  -->
<!DOCTYPE svg PUBLIC "-//W3C//DTD SVG 1.1//EN" "http://www.w3.org/Graphics/SVG/1.1/DTD/svg11.dtd">
<svg version="1.1" id="Layer_1" xmlns="http://www.w3.org/2000/svg" xmlns:xlink="http://www.w3.org/1999/xlink" x="0px" y="0px"
	 width="100px" height="100px" viewBox="0 0 100 100" enable-background="new 0 0 100 100" xml:space="preserve">
<g id="Layer_1_1_">
</g>
<g id="Layer_2">
	<path fill="#EF3125" d="M50,0C22.386,0,0,22.386,0,50s22.386,50,50,50c27.613,0,50-22.386,50-50S77.613,0,50,0z M73.146,72.207
		c-0.004,2.536-0.871,3.441-3.344,3.451c-4.712,0.019-9.424,0.006-14.354,0.006c0-5.129,0-10.042,0-15.083
		c-3.412,0-6.728,0-10.205,0c0,4.94,0,9.894,0,14.978c-0.583,0.043-1.018,0.102-1.453,0.103c-4.264,0.007-8.528,0.014-12.792,0.001
		c-2.65-0.01-3.473-0.827-3.478-3.46c-0.01-5.687-0.022-11.371,0.025-17.056c0.005-0.58,0.235-1.361,0.647-1.707
		c7.316-6.11,14.676-12.167,22.118-18.313c3.507,2.887,6.987,5.744,10.458,8.608c3.795,3.132,7.606,6.246,11.351,9.44
		c0.522,0.446,0.973,1.304,0.981,1.978C73.182,60.837,73.152,66.521,73.146,72.207z M81.557,51.809
		c-0.479,0.524-0.918,1.084-1.377,1.627c-1.447,1.715-1.633,1.715-3.396,0.237c-8.676-7.257-17.358-14.507-26.041-21.757
		c-0.112-0.093-0.256-0.147-0.483-0.275c-3.365,2.806-6.749,5.625-10.129,8.448c-5.567,4.649-11.141,9.292-16.69,13.961
		c-1.022,0.859-1.784,0.853-2.674-0.221c-3.184-3.835-3.122-3.188,0.504-6.216c8.568-7.151,17.138-14.3,25.711-21.444
		c2.184-1.819,4.515-1.793,6.748,0.062c2.998,2.492,5.986,4.994,9.315,7.772c0-2.395-0.001-4.436,0.001-6.478
		c0.002-2.532,0.002-2.533,2.542-2.535c1.774-0.001,3.552-0.006,5.329,0.001c1.99,0.008,2.229,0.255,2.23,2.321
		c0.006,4.517,0.051,9.035-0.029,13.55c-0.021,1.208,0.4,1.943,1.304,2.66c2.341,1.863,4.593,3.837,6.918,5.719
		C82.357,50.07,82.414,50.863,81.557,51.809z"/>
</g>
</svg>
