<?xml version="1.0" encoding="utf-8"?>
<!-- Generator: Adobe Illustrator 16.0.0, SVG Export Plug-In . SVG Version: 6.00 Build 0)  -->
<!DOCTYPE svg PUBLIC "-//W3C//DTD SVG 1.1//EN" "http://www.w3.org/Graphics/SVG/1.1/DTD/svg11.dtd">
<svg version="1.1" xmlns="http://www.w3.org/2000/svg" xmlns:xlink="http://www.w3.org/1999/xlink" x="0px" y="0px" width="100px"
	 height="100px" viewBox="0 0 100 100" enable-background="new 0 0 100 100" xml:space="preserve">
<g id="Layer_1">
</g>
<g id="Layer_2">
	<path fill="#E98D70" d="M50,0C22.386,0,0,22.386,0,50s22.386,50,50,50s50-22.386,50-50S77.614,0,50,0z M73.146,72.207
		c-0.004,2.536-0.87,3.442-3.343,3.451c-4.712,0.019-9.424,0.006-14.354,0.006c0-5.129,0-10.042,0-15.083c-3.412,0-6.728,0-10.205,0
		c0,4.94,0,9.894,0,14.978c-0.583,0.043-1.018,0.101-1.453,0.102c-4.264,0.007-8.528,0.014-12.792,0.001
		c-2.65-0.009-3.473-0.827-3.478-3.46c-0.01-5.686-0.022-11.371,0.025-17.056c0.005-0.58,0.235-1.361,0.647-1.706
		c7.316-6.111,14.676-12.168,22.118-18.313c3.508,2.887,6.987,5.744,10.458,8.608c3.795,3.132,7.607,6.246,11.351,9.44
		c0.523,0.446,0.973,1.304,0.981,1.978C73.182,60.837,73.153,66.522,73.146,72.207z M81.556,51.808
		c-0.478,0.525-0.917,1.085-1.376,1.627c-1.447,1.715-1.633,1.715-3.397,0.238c-8.676-7.257-17.358-14.507-26.041-21.757
		c-0.112-0.093-0.256-0.147-0.483-0.275c-3.365,2.806-6.749,5.625-10.129,8.448c-5.567,4.649-11.141,9.292-16.69,13.961
		c-1.022,0.859-1.784,0.853-2.674-0.221c-3.184-3.835-3.122-3.189,0.504-6.216c8.568-7.151,17.138-14.3,25.711-21.444
		c2.184-1.819,4.515-1.793,6.747,0.062c2.998,2.492,5.987,4.994,9.316,7.772c0-2.395-0.001-4.436,0.001-6.478
		c0.002-2.532,0.002-2.533,2.542-2.535c1.775-0.001,3.552-0.006,5.329,0.001c1.99,0.008,2.229,0.255,2.231,2.321
		c0.005,4.517,0.05,9.035-0.03,13.55c-0.022,1.208,0.401,1.943,1.304,2.66c2.341,1.863,4.593,3.837,6.918,5.719
		C82.358,50.07,82.414,50.863,81.556,51.808z"/>
</g>
</svg>
