<?xml version="1.0" encoding="utf-8"?>
<!-- Generator: Adobe Illustrator 16.0.0, SVG Export Plug-In . SVG Version: 6.00 Build 0)  -->
<!DOCTYPE svg PUBLIC "-//W3C//DTD SVG 1.1//EN" "http://www.w3.org/Graphics/SVG/1.1/DTD/svg11.dtd">
<svg version="1.1" id="Layer_1" xmlns="http://www.w3.org/2000/svg" xmlns:xlink="http://www.w3.org/1999/xlink" x="0px" y="0px"
	 width="100px" height="100px" viewBox="0 0 100 100" enable-background="new 0 0 100 100" xml:space="preserve">
<g>
	<g>
		<g>
			<g>
				<path fill="#767676" d="M50,0C22.388,0,0,22.388,0,50c0,27.611,22.388,50,50,50c27.611,0,50-22.389,50-50
					C100,22.381,77.611,0,50,0z M37.5,74.219H25v-43.75h12.5V74.219z M31.638,27.788c-3.238,0-5.856-2.625-5.856-5.863
					c0-3.237,2.625-5.862,5.856-5.862c3.237,0.006,5.862,2.631,5.862,5.862C37.5,25.163,34.875,27.788,31.638,27.788z M81.25,74.219
					h-12.5v-27.05c0-3.168-0.906-5.387-4.801-5.387c-6.455,0-7.699,5.387-7.699,5.387v27.05h-12.5v-43.75h12.5v4.181
					c1.787-1.369,6.25-4.175,12.5-4.175c4.05,0,12.5,2.425,12.5,17.075V74.219z"/>
			</g>
		</g>
	</g>
</g>
</svg>
