<?xml version="1.0" encoding="utf-8"?>
<!-- Generator: Adobe Illustrator 16.0.0, SVG Export Plug-In . SVG Version: 6.00 Build 0)  -->
<!DOCTYPE svg PUBLIC "-//W3C//DTD SVG 1.1//EN" "http://www.w3.org/Graphics/SVG/1.1/DTD/svg11.dtd">
<svg version="1.1" id="Layer_1" xmlns="http://www.w3.org/2000/svg" xmlns:xlink="http://www.w3.org/1999/xlink" x="0px" y="0px"
	 width="100px" height="100px" viewBox="0 0 100 100" enable-background="new 0 0 100 100" xml:space="preserve">
<path fill="#767676" d="M50,0C22.386,0,0,22.386,0,50s22.386,50,50,50c27.613,0,50-22.386,50-50S77.613,0,50,0z M25.23,26.23h48.75
	c1.408,0,2.713,0.389,3.873,1.024L49.605,51.971L21.36,27.254C22.515,26.619,23.82,26.23,25.23,26.23z M17.105,66.854V34.355
	c0-1.591,0.476-3.063,1.266-4.316L38.67,47.796L18.149,70.764C17.504,69.602,17.105,68.279,17.105,66.854z M73.98,74.979H25.23
	c-1.578,0-3.038-0.468-4.284-1.25l20.783-23.254l6.541,5.724c0.382,0.334,0.858,0.5,1.336,0.5s0.955-0.166,1.337-0.5l6.539-5.724
	l20.783,23.254C77.021,74.512,75.561,74.979,73.98,74.979z M82.105,66.854c0,1.426-0.4,2.748-1.043,3.908L60.54,47.8l20.3-17.761
	c0.789,1.253,1.266,2.726,1.266,4.316V66.854L82.105,66.854z"/>
</svg>
