<?xml version="1.0" encoding="utf-8"?>
<!-- Generator: Adobe Illustrator 16.0.0, SVG Export Plug-In . SVG Version: 6.00 Build 0)  -->
<!DOCTYPE svg PUBLIC "-//W3C//DTD SVG 1.1//EN" "http://www.w3.org/Graphics/SVG/1.1/DTD/svg11.dtd">
<svg version="1.1" id="Layer_1" xmlns="http://www.w3.org/2000/svg" xmlns:xlink="http://www.w3.org/1999/xlink" x="0px" y="0px"
	 width="100px" height="100px" viewBox="0 0 100 100" enable-background="new 0 0 100 100" xml:space="preserve">
<g>
	<g>
	</g>
	<g>
	</g>
	<g>
	</g>
	<g>
	</g>
	<g>
	</g>
	<g>
	</g>
	<g>
	</g>
	<g>
	</g>
	<g>
	</g>
	<g>
	</g>
	<g>
	</g>
	<g>
	</g>
	<g>
	</g>
	<g>
	</g>
	<g>
	</g>
</g>
<path fill="#F1F2F2" d="M50,0.051C22.414,0.051,0.051,22.414,0.051,50S22.414,99.949,50,99.949S99.949,77.586,99.949,50
	S77.586,0.051,50,0.051z M79.434,70.121l-8.549,8.486c-0.386,0.429-0.89,0.793-1.511,1.094c-0.621,0.299-1.232,0.492-1.832,0.578
	c-0.043,0-0.171,0.011-0.386,0.031c-0.214,0.021-0.492,0.033-0.836,0.033c-0.815,0-2.133-0.14-3.953-0.419
	c-1.822-0.277-4.051-0.964-6.686-2.056c-2.636-1.094-5.626-2.733-8.969-4.92c-3.343-2.184-6.9-5.185-10.672-8.999
	c-3-2.957-5.485-5.786-7.457-8.484c-1.971-2.7-3.557-5.198-4.757-7.491c-1.2-2.293-2.1-4.372-2.7-6.235
	c-0.601-1.865-1.007-3.472-1.222-4.822s-0.3-2.411-0.257-3.183c0.043-0.771,0.065-1.2,0.065-1.286c0.085-0.6,0.278-1.21,0.578-1.832
	c0.3-0.622,0.665-1.125,1.093-1.511l8.55-8.55c0.6-0.601,1.286-0.9,2.057-0.9c0.558,0,1.05,0.161,1.479,0.482
	c0.429,0.322,0.793,0.718,1.093,1.189l6.879,13.05c0.386,0.686,0.493,1.436,0.321,2.25c-0.171,0.814-0.536,1.5-1.093,2.057
	l-3.15,3.15c-0.086,0.086-0.161,0.225-0.225,0.418c-0.065,0.193-0.096,0.354-0.096,0.482c0.171,0.9,0.557,1.929,1.157,3.086
	c0.515,1.028,1.307,2.282,2.378,3.761c1.071,1.478,2.593,3.183,4.564,5.11c1.929,1.972,3.643,3.504,5.142,4.598
	c1.501,1.092,2.754,1.896,3.763,2.41c1.007,0.515,1.778,0.824,2.314,0.932l0.803,0.161c0.085,0,0.226-0.031,0.418-0.097
	c0.192-0.064,0.331-0.14,0.418-0.226l3.664-3.729c0.771-0.687,1.672-1.028,2.7-1.028c0.729,0,1.307,0.128,1.735,0.387h0.064
	l12.407,7.328c0.9,0.558,1.436,1.265,1.607,2.122C80.464,68.536,80.163,69.393,79.434,70.121z"/>
</svg>
