<?xml version="1.0" encoding="utf-8"?>
<!-- Generator: Adobe Illustrator 16.0.0, SVG Export Plug-In . SVG Version: 6.00 Build 0)  -->
<!DOCTYPE svg PUBLIC "-//W3C//DTD SVG 1.1//EN" "http://www.w3.org/Graphics/SVG/1.1/DTD/svg11.dtd">
<svg version="1.1" id="Layer_1" xmlns="http://www.w3.org/2000/svg" xmlns:xlink="http://www.w3.org/1999/xlink" x="0px" y="0px"
	 width="100px" height="100px" viewBox="0 0 100 100" enable-background="new 0 0 100 100" xml:space="preserve">
<g>
	<g>
		<g>
			<path fill="#767676" d="M50.039,0C22.448,0,0,22.448,0,50.039c0,27.588,22.448,50.039,50.039,50.039
				c27.588,0,50.039-22.45,50.039-50.039C100.077,22.448,77.631,0,50.039,0z M72.359,38.586c0.021,0.496,0.035,0.996,0.035,1.495
				c0,15.22-11.582,32.763-32.771,32.763c-6.504,0-12.559-1.898-17.655-5.169c0.902,0.106,1.818,0.161,2.748,0.161
				c5.397,0,10.361-1.842,14.304-4.932c-5.039-0.092-9.293-3.422-10.759-7.998c0.702,0.133,1.425,0.207,2.165,0.207
				c1.05,0,2.07-0.137,3.035-0.401c-5.269-1.056-9.237-5.709-9.237-11.293c0-0.048,0-0.098,0.002-0.145
				c1.552,0.86,3.328,1.38,5.214,1.439c-3.087-2.062-5.122-5.589-5.122-9.584c0-2.113,0.567-4.092,1.558-5.792
				c5.679,6.97,14.168,11.553,23.738,12.036c-0.198-0.844-0.297-1.721-0.297-2.625c0-6.36,5.158-11.518,11.515-11.518
				c3.314,0,6.303,1.4,8.408,3.637c2.626-0.516,5.084-1.471,7.314-2.796c-0.867,2.691-2.687,4.946-5.07,6.373
				c2.332-0.277,4.559-0.895,6.615-1.812C76.563,34.938,74.611,36.967,72.359,38.586z"/>
		</g>
	</g>
</g>
</svg>
